<svg id="Layer_1" data-name="Layer 1" xmlns="http://www.w3.org/2000/svg" viewBox="0 0 143.21 143.21"><defs><style>.cls-1{fill:#6f6e6e;}.cls-2{fill:#4a4a4a;}.cls-3{fill:#010202;}</style></defs><title>brikker</title><path class="cls-1" d="M65.15,26.35c4-1.47,13.85-1,16.37,3.57,1.76,3.22-2.31,8.81-.63,10.49S93.27,52,93.27,52L75.64,88.47l3.15,4.62,7.34-1.26,13.22-26a18.39,18.39,0,0,1,3.57,10.7c0,6.32,1.37,11-2.84,19S89.77,114.2,89.77,114.2s4.42,0,5.89,4A30.11,30.11,0,0,1,97.35,126l-50.93.42s-.18-4.95,1.89-8.21c2.52-4,6.13-4.83,4-7.34C50,108.12,41.44,91.21,40.18,85.53s.18-24.94,10.28-34.62S62,39.36,62,39.36s-4.16-10.32,3.15-13"/><polygon class="cls-2" points="52.1 115.25 90.19 114.2 96.02 119.32 97.77 125.98 46.83 126.41 47.04 119.04 52.1 115.25"/><path class="cls-3" d="M48.09,123.85c.16-1.9.68-4.42,2.05-5.88a4.09,4.09,0,0,1,3.15-1.26H89.9A4.1,4.1,0,0,1,93,118c1.38,1.46,1.89,4,2.05,5.88Zm16.2-82a2.1,2.1,0,0,0,.6-3.48,6.19,6.19,0,0,1-2.16-4.54c0-3.85,4-7,8.87-7s8.87,3.13,8.87,7a6.19,6.19,0,0,1-2.16,4.54,2.1,2.1,0,0,0,.6,3.48C83.31,43.68,87.54,47.2,91.2,52L74.41,84a7.85,7.85,0,1,0,13.89,7.31L99.64,69.7A41,41,0,0,1,101,79.75c0,8-5.84,23.27-14.26,32.77H56.47C48.06,103,42.21,87.69,42.21,79.75c0-17.11,11.42-33.43,22.07-37.93M92,112.75c8-10.33,13.21-24.79,13.21-33a48.21,48.21,0,0,0-3.07-16.24,2.1,2.1,0,0,0-3.83-.26l-13.7,26a3.65,3.65,0,1,1-6.46-3.4l17.4-33.08a2.09,2.09,0,0,0-.15-2.2A38.14,38.14,0,0,0,83.05,39.18a9.91,9.91,0,0,0,1.61-5.38c0-6.16-5.86-11.17-13.06-11.17s-13.06,5-13.06,11.17a9.89,9.89,0,0,0,1.61,5.38c-5.8,3.2-11.13,8.78-15.22,16A51.76,51.76,0,0,0,38,79.75c0,8.18,5.22,22.67,13.21,33a8,8,0,0,0-4.15,2.35c-3.56,3.78-3.27,10.25-3.22,11a2.1,2.1,0,0,0,2.09,2H97.24a2.1,2.1,0,0,0,2.09-2c0-.73.34-7.19-3.22-11A8,8,0,0,0,92,112.75"/></svg>