<svg id="Layer_1" data-name="Layer 1" xmlns="http://www.w3.org/2000/svg" viewBox="0 0 143.21 143.21"><defs><style>.cls-1{fill:#6f6e6e;}.cls-2{fill:#4a4a4a;}.cls-3{fill:#010202;}</style></defs><title>brikker</title><path class="cls-1" d="M45.12,125.72l53.37-.39s-.91-6.32-3-8.63-3.05-3.19-3.05-3.19L111.61,64s-5.38-5.45-8.95-5.66-25-7.31-25-7.31V43.72l9.5-.91.37-12.6-10.23-.37s5.07-8.57-1.65-11.51-6.85-.79-9,1.1S64.35,26,65.39,28.74,57.18,30,57.18,30L55.71,43l9.14.73-1.46,7.46-7.12,2.78L31.78,62.17s7.95,23.26,10,27,6.94,19.55,6.94,19.55l1.83,5.85s-5.06,5.45-5.06,6.92a37.78,37.78,0,0,1-.42,4.2"/><path class="cls-2" d="M45.39,126.47l53.1-.31-1-8-7.63-3.75s-11.75-.14-12.45-.28-25.32.14-25.32.14l-6,3.08-1.26,6.16Z"/><path class="cls-2" d="M65.14,50.92,77,50.15l2.52-8.2,9.21.11-.44-11.62H78.51s2.3-4.3,1.21-7.47-7.34-9.87-12.49-4.83a9.6,9.6,0,0,0-2.41,10.76l.55,1.53-9.54.22.11,11.93,7.89.77Z"/><path class="cls-3" d="M90.28,112.44H53c-8.82-20.81-17.94-43.86-18.93-49,4-2.12,21-9.72,37.28-9.72,16.06,0,33.31,7.51,37.71,9.77-1,5.22-10.05,28.22-18.82,49M94.79,118c1.37,1.46,1.89,4,2.05,5.88H46.47c.16-1.9.68-4.42,2.05-5.88a4.09,4.09,0,0,1,3.15-1.26,2.18,2.18,0,0,0,.54-.07H91.1a2.18,2.18,0,0,0,.54.07A4.1,4.1,0,0,1,94.79,118M66,41.84a2,2,0,0,0-1.43-.59H57.73V32.1l8.73,0h0a2,2,0,0,0,1.37-3.49,5.4,5.4,0,0,1-1.73-4,5.51,5.51,0,0,1,5.56-5.45,5.45,5.45,0,0,1,5.45,5.45,5.39,5.39,0,0,1-1.73,4,2,2,0,0,0,1.37,3.49h0l8.73,0v9.16h-7.9a2,2,0,0,0-2,2v6.37c-1.39-.1-2.79-.16-4.18-.16-1.59,0-3.2.07-4.81.2V43.27A2,2,0,0,0,66,41.84m46.28,18.57h0C110.54,59.3,95.64,52.11,79.6,50V45.28h7.9a2,2,0,0,0,2-2V30.08a2,2,0,0,0-2-2h0l-7,0a9.53,9.53,0,1,0-17.77,0l-7,0h0a2,2,0,0,0-2,2V43.28a2,2,0,0,0,2,2h6.84v4.84c-15.71,2.16-30.21,9.13-31.82,10.41s-2.46,2,8.43,29.23c3.78,9.46,7.72,18.9,9.55,23.23a8,8,0,0,0-3.25,2.11c-3.56,3.78-3.27,10.25-3.22,11a2.1,2.1,0,0,0,2.09,2H99a2.1,2.1,0,0,0,2.09-2c0-.73.34-7.2-3.22-11A8,8,0,0,0,94.6,113c1.82-4.34,5.77-13.82,9.54-23.31,3-7.54,5.3-13.61,6.84-18,3-8.57,2.94-10.17,1.3-11.23"/></svg>