<svg id="Layer_1" data-name="Layer 1" xmlns="http://www.w3.org/2000/svg" viewBox="0 0 143.21 143.21"><defs><style>.cls-1{fill:#6f6e6e;}.cls-2{fill:#4a4a4a;}.cls-3{fill:#010202;}</style></defs><title>brikker</title><path class="cls-1" d="M37.28,28.9l-6.41,1.58-5,2L24.09,46.33l2.57,9.91L37,61.39l1.4,5.75,4.42,19.65,12.79,19.36,2.55,7.94-7.4,4.76-1.16,7.53,61.31-.39-1.36-7.2L105,115.48s3.34-12.42,2.14-14.59-18.1-20.43-18.1-20.43L87,75.65l8.61-.59,12,2.18,9.62-7.92-.6-3.77,2-21.2S111.8,39,108.19,37.81,96.77,38.8,95,39.2s-7.21,1.58-10.42-.59S66.32,25.13,66.32,25.13l-24.24.2Z"/><polygon class="cls-2" points="56.76 114.11 105.74 114.7 109.75 118.27 110.35 125 49.55 125 51.42 118.6 56.76 114.11"/><polygon class="cls-2" points="35.67 30.02 44.22 33.85 53.84 39.27 58.78 36.1 73.34 30.28 65.79 24.34 41.55 24.54 35.67 30.02"/><path class="cls-2" d="M68.8,41.25s8.28,1.06,8.41,3,2.67,9.38-2.13,10.3-10.15-.4-10.55-3,.53-9.91,4.27-10.3"/><path class="cls-3" d="M71.78,53.39a4.94,4.94,0,1,1,4.94-4.93,4.94,4.94,0,0,1-4.94,4.93m0-14.07a9.13,9.13,0,1,0,9.13,9.14,9.15,9.15,0,0,0-9.13-9.14"/><path class="cls-3" d="M115.9,47.59c0,.45,0,.9,0,1.33-.06,2.26-.33,11.15-.48,12.6,0,.17,0,.34-.06.48h0l-.87-.2c-1.59-.37-2-.46-2.56-.31a2.1,2.1,0,0,0-.91,3.59,9.93,9.93,0,0,0,1.9,1.16c.5.27,1.36.73,1.76,1a2.07,2.07,0,0,1,.15.57c0,.08,0,.16,0,.22l-.18.3-.2.32a5.73,5.73,0,0,1-.65.88c-.24.27-.51.55-.84.87-.55.52-1.17,1.07-1.89,1.65-.33.26-.56.48-.77.67a6.57,6.57,0,0,1-.73.6c-.34.24-.68.47-1,.69l-.5.3-.15.08-.24.09a6.92,6.92,0,0,1-1.14.22c-.41.05-.82.08-1.22.11h-.08a3.93,3.93,0,0,0-.62-.09,28.3,28.3,0,0,1-2.88-.47l-.17,0a20.07,20.07,0,0,1-3.42-1l-1-.46c-.56-.26-.89-.4-1.77-.75A2.07,2.07,0,0,0,94,71.87L84.8,74.11a2.1,2.1,0,0,0-1,3.53C87,80.79,94.27,88.09,98.9,93.22l.26.28c4.6,5.09,8.64,10.75,3.61,19H58.87c1-4.26-2.07-8.22-5.5-12.65-5.5-7.11-13-16.84-12.88-35,.51-5.49-4.46-7.28-7.76-8.46-1.53-.55-3.26-1.17-3.75-1.87-1.2-1.7-2.53-11.41-1.12-17.76.44-2,1.15-3.43,1.88-3.85,4.08-2.34,13.32,1.34,19.39,6.24,6.23,5,10.35,1.72,13.36-.7A23.9,23.9,0,0,1,65,36.6c4.65-2.85,8.56-3.07,12.16-.65.7.56,1.29,1,1.69,1.33a27.43,27.43,0,0,0,7,3.64l.15,0,.92.22a23,23,0,0,0,2.53.44,13.88,13.88,0,0,0,2.72.07,22.19,22.19,0,0,0,2.52-.34c1.55-.28,3.07-.68,4.55-1.06l1.14-.3c1.18-.31,2.3-.6,3.46-.79l.19,0,.23,0a1.59,1.59,0,0,1,.3,0c.34,0,.93.17,1.21.25,1.43.43,8.83,3.55,10.17,4.89a21.39,21.39,0,0,1,0,3.26M52.09,123.85c.16-1.89.67-4.4,2.05-5.87a3.79,3.79,0,0,1,1.27-.89,2.1,2.1,0,0,0,.88-.27,5.27,5.27,0,0,1,1-.1h45.83a4.09,4.09,0,0,1,3.15,1.25c1.37,1.46,1.89,4,2.05,5.88ZM43,28.21l1-.7a3.43,3.43,0,0,1,.63-.05l14.67-.06,7.6,0,3.35,2.83A19.19,19.19,0,0,0,62.77,33a28.09,28.09,0,0,0-2.93,2.15c-3,2.4-4.48,3.61-8.09.7a41.76,41.76,0,0,0-10.85-6.21l2-1.46m76.79,14.42c-1.3-3.21-12.79-7.2-12.91-7.23a16.48,16.48,0,0,0-1.76-.36A6.16,6.16,0,0,0,104,35l-.51.05-.19,0h-.12c-1.37.22-2.65.56-3.89.88l-1.12.29c-1.47.38-2.86.74-4.28,1a18.92,18.92,0,0,1-2.07.29,10.31,10.31,0,0,1-1.92-.06,18.6,18.6,0,0,1-2.09-.36l-.71-.17a23.65,23.65,0,0,1-5.72-3,18.2,18.2,0,0,0-1.67-1.31c-3.46-2.8-9.91-8.26-10.25-8.56a3,3,0,0,0-2.16-.9l-8.07,0-14.65.06a4.84,4.84,0,0,0-3.06.83l-1,.69c-1.83,1.29-3.65,2.59-4.73,3.46a12.22,12.22,0,0,0-8.16,1c-1.85,1.06-3.16,3.27-3.89,6.59-1.46,6.6-.51,17.83,1.78,21.09,1.25,1.77,3.55,2.6,5.77,3.4,3.93,1.42,5.2,2.22,5,4.18a1.91,1.91,0,0,0,0,.2C36.1,84.42,44.49,95.26,50,102.44c4.32,5.59,5.88,7.88,4,10.67a8,8,0,0,0-3,2c-3.56,3.79-3.27,10.25-3.22,11a2.1,2.1,0,0,0,2.1,2h60.52a2.1,2.1,0,0,0,2.1-2c0-.73.33-7.19-3.23-11a8,8,0,0,0-2.27-1.68c5.8-11-1.28-18.82-4.81-22.72l-.25-.28C98.34,86.33,93.16,81,89.43,77.3l4.91-1.2,1,.42,1.06.48a24.83,24.83,0,0,0,4.18,1.29l.15,0a33.23,33.23,0,0,0,3.44.56,3.42,3.42,0,0,0,1.33.1c.5,0,1-.07,1.53-.13a11.4,11.4,0,0,0,1.84-.37l.21-.07.12,0,.28-.11c.21-.09.37-.18.54-.26s.5-.29.74-.43c.42-.26.83-.54,1.23-.81a10.44,10.44,0,0,0,1.15-.94c.16-.14.33-.3.57-.5.82-.66,1.53-1.28,2.16-1.89.41-.4.76-.76,1.08-1.13a9.56,9.56,0,0,0,1.15-1.56l.08-.14a4.88,4.88,0,0,0,.77-1.71,5.39,5.39,0,0,0,0-1.5,6.54,6.54,0,0,0-.68-2.24l0,0a3.7,3.7,0,0,0,.43-.49,3.6,3.6,0,0,0,.46-.87,6,6,0,0,0,.24-1l0-.09c0-.25.07-.49.1-.74.19-1.91.49-12.81.5-12.92,0-.41,0-.83,0-1.26.1-2.41.13-4-.35-5.13"/></svg>