<svg id="Layer_1" data-name="Layer 1" xmlns="http://www.w3.org/2000/svg" viewBox="0 0 143.21 143.21"><defs><style>.cls-1{fill:#6f6e6e;}.cls-2{fill:#4a4a4a;}.cls-3{fill:#010202;}</style></defs><title>brikker</title><path class="cls-1" d="M70.9,34c7.68.51,15.54,1.82,18,11.76s2,12.35-.64,15c-5.86,6-1.66,6-1.66,6S94.16,70.6,93,73.23a15.86,15.86,0,0,1-3.29,4.66l-5.7,2,6.63,34a6.71,6.71,0,0,1,5.25,3.19C98,120.3,98.18,125,98.18,125l-51.79.38s-1.69-4.69.56-6.57S52.22,114,52.22,114l7.31-35.59s-6,0-7.51-2.25-4-6.87.66-7.81,7.78-3.87,4.59-5.75-5.43-8.21-2.05-16.84S62.46,33.47,70.9,34"/><polygon class="cls-2" points="50.5 114.4 90.98 114.65 95.69 117.28 97.87 124.16 46.39 124.53 46.63 119.03 50.5 114.4"/><path class="cls-2" d="M56.79,67.45,68,68.23l16.83-1,6.28,2.09,1,5.17L88,78.36s-10.07,2-10.43,2-21.21-.88-21.21-.88L52,76.26l-1.77-3.85Z"/><path class="cls-3" d="M47.68,123.85c.16-1.9.68-4.42,2.05-5.88a4.09,4.09,0,0,1,3.15-1.26H90.32A4.09,4.09,0,0,1,93.48,118c1.37,1.46,1.89,4,2.05,5.88Zm11.61-29a125.12,125.12,0,0,0,1.55-13H82.37a126.05,126.05,0,0,0,1.55,13c.79,3.72,3.48,13.69,4.56,17.64H54.73c1.08-3.94,3.77-13.91,4.56-17.64m-6.6-21.51c0-2.24,2.78-4.15,6.15-4.28,1.25.41,4.89,1.33,12.57,1.33,7.86,0,11.7-.94,12.94-1.33,3.38.12,6.18,2,6.18,4.28s-3,4.28-6.5,4.28H59.19c-3.53,0-6.5-2-6.5-4.28M71.6,36.22a16.11,16.11,0,0,1,9.17,29.36h0a58.59,58.59,0,0,1-9.36.63,56.09,56.09,0,0,1-8.88-.58A16.11,16.11,0,0,1,71.6,36.22M96.54,115.1a8,8,0,0,0-3.61-2.22c-.41-1.5-4-14.64-4.9-18.87A122.51,122.51,0,0,1,86.56,81.6c4.68-.91,8.16-4.25,8.16-8.23,0-3.79-3.15-7-7.49-8.09a20.3,20.3,0,1,0-31.27,0c-4.33,1.09-7.48,4.3-7.48,8.09,0,4,3.49,7.32,8.16,8.23A122.5,122.5,0,0,1,55.18,94c-.9,4.23-4.49,17.38-4.9,18.87a8,8,0,0,0-3.61,2.22c-3.56,3.78-3.27,10.25-3.22,11a2.1,2.1,0,0,0,2.09,2H97.67a2.09,2.09,0,0,0,2.09-2c0-.73.33-7.19-3.22-11"/></svg>