<svg id="Layer_1" data-name="Layer 1" xmlns="http://www.w3.org/2000/svg" viewBox="0 0 143.21 143.21"><defs><style>.cls-1{fill:#6f6e6e;}.cls-2{fill:#4a4a4a;}.cls-3{fill:#010202;}</style></defs><title>brikker</title><path class="cls-1" d="M70.87,19.81c5.19.35,9.15,3.33,9.36,6.65s.62,8.11.62,8.11S90,38.73,92.7,42.68a58.29,58.29,0,0,0,6,7.28l8.14-.65c4.61-.37,12.06,6.17,11.64,8.46s-5.86,6.74-7.73,9S92.45,91.17,92.45,91.17l-2,21.16s5.72,2.33,7.17,5.87a19,19,0,0,1,1.25,7.34l-53.74.3s-.66-6.05,1.21-7.92A57.47,57.47,0,0,1,52,113.35s-.25-19.42-2.63-23.15A161.57,161.57,0,0,0,24.27,60.12s2.06-6.61,4.57-8.73c4.44-3.74,14.93-2.32,15.66.56s-.87-4.9,4.33-8.85,12.47-8.73,12.47-8.73-.42-6,.62-8.52,2.7-6.44,8.94-6"/><path class="cls-2" d="M49.73,114.12c.56-.14,20.1.28,20.1.28l20.1-1.53s3.6,2.08,4.16,2.22,4.3,8.73,4.3,8.73L79,125.49l-33.13.42-1.11-6.1Z"/><path class="cls-2" d="M61.3,34.37c.62-2-.9-10.88,2.56-12.13s7.76-4,12.34-1.38,5.4,9.42,5,11a9.57,9.57,0,0,0-.35,2.77s9.49,5.13,11.85,8.11a91,91,0,0,1,5.54,8.52l-5,5.59-8-.83-7.76-8-10-1.39-6.65,7.07-5.13,3.05s-7.76-.28-8.17-.56S44,51.34,44,51.34l6-9.56Z"/><path class="cls-3" d="M90.07,93.93l0,.16c-1.32,5.76-1.24,14.69-1.13,18.43H54.31c.11-3.74.19-12.68-1.13-18.43l0-.16C48.93,80.6,34.55,64.55,26.69,59.55a6.62,6.62,0,0,1,1.33-3c1.44-2.06,4.19-4.61,7.24-5,3.64-.44,5.6,1.43,8.09,3.8s5.05,4.82,9.41,4.9c6.32.12,8.44-3.1,10.17-5.69s3.11-4.65,8.73-4.65,7,2,8.66,4.64,3.76,5.71,9.8,5.71h.32c4.35-.08,7-2.64,9.41-4.9s4.44-4.24,8.09-3.8c3,.37,5.81,2.92,7.24,5a6.58,6.58,0,0,1,1.33,3c-7.85,5-22.23,21-26.45,34.37M96,123.85H47.25c.16-1.89.67-4.4,2.05-5.87a4.09,4.09,0,0,1,3.16-1.26H90.74A4.1,4.1,0,0,1,93.9,118c1.37,1.46,1.89,4,2.05,5.88m-32.2-86A2.09,2.09,0,0,0,65.41,35l0-.12a2,2,0,0,0-.2-.38,7.83,7.83,0,1,1,13.13-.24,2.1,2.1,0,0,0,1.16,3.61C92.27,39.54,95.89,51.47,96,52a2.11,2.11,0,0,0,.45.8c-1.88,1.78-3.61,3.25-6.11,3.29-4,.08-5-1.47-6.55-3.81-1.91-2.9-4.29-6.52-12.17-6.52s-10.28,3.61-12.22,6.51c-1.57,2.34-2.58,3.9-6.61,3.82-2.5,0-4.23-1.51-6.11-3.29a2.07,2.07,0,0,0,.45-.81c0-.12,3.69-12.42,16.58-14.13m56.81,20.42c-.89-4-5.92-10.11-12.1-10.86a11.42,11.42,0,0,0-8.7,2.47c-1.14-3.1-5.52-12.76-16.81-15.63a12,12,0,1,0-22.58,0C49,37.05,44.59,46.76,43.45,49.86a11.41,11.41,0,0,0-8.7-2.47c-6.19.76-11.22,6.84-12.1,10.86-.65,3,.91,4.29,1.61,4.72,7.34,4.54,21,20,24.86,32.13,1.23,5.46,1.09,14.47,1,17.71a8,8,0,0,0-3.85,2.28c-3.56,3.79-3.27,10.25-3.22,11a2.1,2.1,0,0,0,2.09,2h53a2.1,2.1,0,0,0,2.09-2c0-.73.34-7.19-3.22-11a8,8,0,0,0-3.85-2.28c-.1-3.25-.24-12.25,1-17.71C98,83,111.61,67.53,119,63c.7-.43,2.25-1.76,1.61-4.72"/></svg>