<svg id="Layer_1" data-name="Layer 1" xmlns="http://www.w3.org/2000/svg" viewBox="0 0 143.21 143.21"><defs><style>.cls-1{fill:#6f6e6e;}.cls-2{fill:#4a4a4a;}.cls-3{fill:#010202;}</style></defs><title>brikker</title><path class="cls-1" d="M103.12,68.62l1-39.81H94.28a64.91,64.91,0,0,0-1,10.07c-.21,6.09-2.1,7.55-8,5.25s-3.57-15.32-3.57-15.32L62,29s-.21,4-.21,7.55-.63,5.46-3.57,7.76-2.31,1.89-6.09-.63-1.47-14.9-1.47-14.9H39.93s-.21,28.54.21,35.67,3.36,9.86,9.65,12.8c2.07,1,2.13,1.94,5.25,2.52l-6.12,34.83s-4.83.42-5.88,4.83a16,16,0,0,0-.42,6.93l57.91-.42s2.31-6.93-1-8.81a25.39,25.39,0,0,1-5.66-4.41s-7.15-34.19-3.54-35.25c6.49-1.9,12.83-8.88,12.83-8.88"/><path class="cls-2" d="M43.37,125.86l59.39-.48-1.31-6.05-5.63-4.08s-13.77-.52-14.58-.68-29.67-.67-29.67-.67l-7.14,2.88-1.64,6.11Z"/><path class="cls-3" d="M91.29,112.52H51.88L56.29,81a79.64,79.64,0,0,0,15.27,1.3,79.14,79.14,0,0,0,15.5-1.34Zm8,11.33H43.89c.16-1.89.67-4.41,2.05-5.88a4.1,4.1,0,0,1,3.16-1.26h45A4.1,4.1,0,0,1,97.25,118c1.37,1.46,1.89,4,2.05,5.88m-55-53.15-.23-.27a5.64,5.64,0,0,1-1.4-4l-.36-35H48l.12,9c0,4.08,3.9,6.28,7.56,6.28s7.56-2.2,7.56-6.23l.23-9h16.3l.23,9c0,4.08,3.89,6.28,7.55,6.28s7.56-2.2,7.56-6.25l.12-9h5.7l-.36,34.91c-.1,2.22-.56,3.16-1.4,4.11l-.21.25c-4.15,4.9-13.36,7.38-27.38,7.38s-23.15-2.48-27.27-7.36m57.84,2.69.16-.19a9.93,9.93,0,0,0,2.45-6.78l.39-37.1a2.1,2.1,0,0,0-2.1-2.12h0l-9.89,0A2.1,2.1,0,0,0,91,29.31l-.15,11.12c0,1.42-2,2.08-3.36,2.08s-3.36-.67-3.36-2.14l-.28-11.08a2.1,2.1,0,0,0-2.1-2H61.41a2.1,2.1,0,0,0-2.1,2L59,40.42c0,1.42-2,2.08-3.36,2.08s-3.36-.67-3.36-2.11l-.15-11.09a2.1,2.1,0,0,0-2.09-2.07l-9.89,0h0a2.1,2.1,0,0,0-2.1,2.12l.39,37.16a9.85,9.85,0,0,0,2.45,6.71l.17.2c2.43,2.88,6.15,5.07,11.11,6.55l-4.56,32.69a8.1,8.1,0,0,0-4.74,2.46c-3.56,3.78-3.27,10.25-3.22,11a2.09,2.09,0,0,0,2.09,2h59.69a2.09,2.09,0,0,0,2.09-2c0-.72.34-7.19-3.22-11a8.09,8.09,0,0,0-4.78-2.46L91.16,79.9c4.88-1.48,8.56-3.64,11-6.5"/></svg>