<svg id="Layer_1" data-name="Layer 1" xmlns="http://www.w3.org/2000/svg" viewBox="0 0 143.21 143.21"><defs><style>.cls-1{fill:#fff;}.cls-2{fill:#d6d7d7;}.cls-3{fill:#010202;}</style></defs><title>brikker</title><path class="cls-1" d="M65.16,26.35c4-1.47,13.85-1,16.37,3.57,1.75,3.22-2.31,8.81-.63,10.5S93.27,51.95,93.27,51.95L75.65,88.46l3.15,4.62,7.34-1.26,13.22-26a18.37,18.37,0,0,1,3.57,10.7c0,6.32,1.37,11-2.84,19s-10.31,18.73-10.31,18.73,4.42,0,5.89,4A30.14,30.14,0,0,1,97.36,126l-50.94.42s-.18-4.95,1.9-8.21c2.52-4,6.12-4.83,4-7.34C50,108.12,41.45,91.2,40.18,85.52s.18-24.94,10.28-34.62S62,39.36,62,39.36s-4.16-10.32,3.15-13"/><polygon class="cls-2" points="52.1 114.41 90.2 113.35 96.02 118.48 97.78 125.14 46.84 125.56 47.05 118.19 52.1 114.41"/><path class="cls-3" d="M48.1,123.85c.16-1.9.68-4.42,2.05-5.88a4.08,4.08,0,0,1,3.15-1.26H89.9A4.1,4.1,0,0,1,93.06,118c1.37,1.46,1.89,4,2.05,5.88Zm16.2-82a2.1,2.1,0,0,0,.6-3.48,6.18,6.18,0,0,1-2.16-4.53c0-3.85,4-7,8.87-7s8.87,3.13,8.87,7a6.19,6.19,0,0,1-2.16,4.53,2.1,2.1,0,0,0,.6,3.48C83.32,43.68,87.54,47.19,91.2,52L74.41,83.94A7.85,7.85,0,1,0,88.3,91.25L99.64,69.69A41,41,0,0,1,101,79.75c0,8-5.84,23.27-14.26,32.77H56.47C48.06,103,42.22,87.69,42.22,79.75c0-17.11,11.42-33.43,22.08-37.93M92,112.75c8-10.33,13.21-24.79,13.21-33a48.21,48.21,0,0,0-3.07-16.24,2.1,2.1,0,0,0-3.83-.26l-13.7,26a3.65,3.65,0,0,1-6.46-3.4l17.4-33.08a2.09,2.09,0,0,0-.15-2.19A38.11,38.11,0,0,0,83.06,39.17a9.9,9.9,0,0,0,1.61-5.37c0-6.17-5.86-11.18-13.06-11.18s-13.07,5-13.07,11.18a9.88,9.88,0,0,0,1.61,5.37c-5.8,3.2-11.13,8.78-15.22,16A51.78,51.78,0,0,0,38,79.75c0,8.18,5.22,22.68,13.21,33a8,8,0,0,0-4.15,2.35c-3.56,3.79-3.27,10.25-3.22,11A2.1,2.1,0,0,0,46,128H97.25a2.1,2.1,0,0,0,2.09-2c0-.73.34-7.19-3.22-11A8,8,0,0,0,92,112.75"/></svg>