<svg id="Layer_1" data-name="Layer 1" xmlns="http://www.w3.org/2000/svg" viewBox="0 0 143.21 143.21"><defs><style>.cls-1{fill:#fff;}.cls-2{fill:#d6d7d7;}.cls-3{fill:#010202;}</style></defs><title>brikker</title><path class="cls-1" d="M37.28,28.89l-6.41,1.58-5,2L24.09,46.32l2.57,9.91L37,61.38l1.4,5.74,4.42,19.65,12.79,19.36,2.55,7.94-7.4,4.75-1.16,7.53,61.31-.39-1.36-7.2L105,115.47s3.34-12.42,2.14-14.59-18.1-20.43-18.1-20.43L87,75.65l8.61-.59,12,2.18,9.62-7.93-.6-3.76,2-21.2S111.8,39,108.19,37.8s-11.42,1-13.22,1.39-7.21,1.58-10.42-.59S66.32,25.13,66.32,25.13l-24.24.2Z"/><polygon class="cls-2" points="56.76 114.94 105.74 115.53 109.75 119.1 110.35 125.84 49.54 125.84 51.41 119.43 56.76 114.94"/><polygon class="cls-2" points="35.67 30.01 44.22 33.84 53.84 39.26 58.78 36.09 73.33 30.27 65.79 24.33 41.55 24.53 35.67 30.01"/><path class="cls-2" d="M68.79,41.24s8.28,1.06,8.41,3,2.67,9.38-2.13,10.3-10.15-.4-10.55-3,.53-9.91,4.27-10.3"/><path class="cls-3" d="M71.78,53.39a4.94,4.94,0,1,1,4.94-4.94,4.94,4.94,0,0,1-4.94,4.94m0-14.07a9.13,9.13,0,1,0,9.13,9.13,9.14,9.14,0,0,0-9.13-9.13"/><path class="cls-3" d="M115.9,47.58c0,.45,0,.9,0,1.33-.06,2.26-.33,11.15-.48,12.6,0,.17,0,.34-.06.48h0l-.87-.2c-1.59-.37-2-.46-2.56-.31a2.1,2.1,0,0,0-.91,3.59,9.92,9.92,0,0,0,1.9,1.16c.5.27,1.36.73,1.76,1a2.19,2.19,0,0,1,.15.57c0,.08,0,.15,0,.21l-.18.3-.2.32a6,6,0,0,1-.65.88c-.24.27-.51.55-.84.87-.55.53-1.17,1.07-1.89,1.65-.33.27-.56.48-.77.67a6.22,6.22,0,0,1-.73.6c-.34.23-.68.46-1,.69l-.5.3-.15.08-.24.09a6.91,6.91,0,0,1-1.14.22c-.41.05-.82.08-1.22.11h-.08a3.56,3.56,0,0,0-.62-.09,28.32,28.32,0,0,1-2.88-.47l-.17,0a19.66,19.66,0,0,1-3.42-1l-1-.46c-.57-.25-.89-.4-1.77-.75A2.1,2.1,0,0,0,94,71.86L84.8,74.1a2.1,2.1,0,0,0-1,3.53C87,80.78,94.27,88.09,98.9,93.22l.26.28c4.6,5.09,8.64,10.75,3.61,19H58.86c1-4.26-2.07-8.22-5.5-12.65-5.5-7.11-13-16.84-12.88-35,.51-5.48-4.46-7.28-7.76-8.46-1.53-.55-3.26-1.18-3.75-1.87-1.2-1.7-2.53-11.4-1.12-17.76.44-2,1.15-3.43,1.88-3.85,4.08-2.34,13.32,1.34,19.39,6.24,6.23,5,10.35,1.72,13.36-.7A23.91,23.91,0,0,1,65,36.59c4.65-2.85,8.56-3.07,12.16-.65.7.56,1.29,1,1.69,1.33a27.43,27.43,0,0,0,7,3.64l.14,0,.92.23a22.91,22.91,0,0,0,2.53.43,14.13,14.13,0,0,0,2.71.08,22.14,22.14,0,0,0,2.53-.35c1.55-.29,3.07-.68,4.54-1.06l1.14-.29c1.18-.31,2.3-.6,3.46-.79l.18,0,.23,0a1.56,1.56,0,0,1,.3,0,12.34,12.34,0,0,1,1.21.25c1.43.43,8.83,3.55,10.17,4.89a21.39,21.39,0,0,1,0,3.26M52.09,123.84c.16-1.89.67-4.4,2.05-5.87a3.79,3.79,0,0,1,1.27-.89,2.06,2.06,0,0,0,.88-.27,5.27,5.27,0,0,1,1-.1h45.83a4.11,4.11,0,0,1,3.15,1.25c1.37,1.46,1.89,4,2.05,5.88ZM43,28.2l1-.7a3.49,3.49,0,0,1,.63-.05l14.66-.06,7.6,0,3.35,2.83A19.17,19.17,0,0,0,62.77,33a28.1,28.1,0,0,0-2.93,2.15c-3,2.4-4.48,3.61-8.09.7a41.82,41.82,0,0,0-10.85-6.21l2-1.46m76.79,14.42c-1.3-3.2-12.79-7.2-12.91-7.23a16.82,16.82,0,0,0-1.76-.36A6.16,6.16,0,0,0,104,35l-.51.05-.19,0h-.12c-1.37.22-2.65.56-3.89.88l-1.13.29c-1.47.38-2.86.73-4.28,1a18.75,18.75,0,0,1-2.07.28,10,10,0,0,1-1.92-.06,19.35,19.35,0,0,1-2.09-.36l-.71-.18a23.63,23.63,0,0,1-5.72-3,17.71,17.71,0,0,0-1.67-1.32c-3.46-2.8-9.91-8.26-10.25-8.55a3,3,0,0,0-2.16-.9l-8.07,0-14.65.06a4.86,4.86,0,0,0-3.07.83l-1,.69c-1.83,1.29-3.65,2.59-4.73,3.46a12.23,12.23,0,0,0-8.16,1c-1.85,1.06-3.16,3.27-3.89,6.59-1.46,6.6-.51,17.83,1.78,21.09,1.25,1.77,3.55,2.6,5.77,3.4,3.93,1.42,5.2,2.22,5,4.18,0,.06,0,.13,0,.2C36.09,84.41,44.49,95.25,50,102.43c4.32,5.59,5.88,7.88,4,10.67a8,8,0,0,0-3,2c-3.56,3.79-3.27,10.25-3.22,11A2.1,2.1,0,0,0,50,128h60.52a2.1,2.1,0,0,0,2.09-2c0-.73.34-7.19-3.22-11a8,8,0,0,0-2.27-1.68c5.8-11-1.29-18.82-4.81-22.72l-.25-.28C98.34,86.32,93.16,81,89.42,77.29l4.92-1.2,1,.42,1.06.48a24.74,24.74,0,0,0,4.18,1.29l.15,0a34.13,34.13,0,0,0,3.44.56,3.41,3.41,0,0,0,1.33.1c.5,0,1-.07,1.53-.13a11.47,11.47,0,0,0,1.84-.37l.21-.07.12,0,.28-.11c.21-.09.37-.18.54-.26s.5-.29.74-.43c.42-.26.82-.54,1.23-.81a11.25,11.25,0,0,0,1.15-.94c.16-.15.33-.3.57-.5.82-.66,1.52-1.28,2.16-1.89.41-.4.76-.76,1.08-1.13a9.75,9.75,0,0,0,1.14-1.57l.09-.14a4.86,4.86,0,0,0,.77-1.71,5.65,5.65,0,0,0,0-1.5,6.64,6.64,0,0,0-.68-2.24l0,0a3.7,3.7,0,0,0,.43-.49,3.54,3.54,0,0,0,.46-.87,5.53,5.53,0,0,0,.24-1s0-.1,0-.11c0-.25.07-.49.09-.73.2-1.92.5-12.81.5-12.92,0-.4,0-.83,0-1.26.1-2.41.13-4-.35-5.13"/></svg>