<svg id="Layer_1" data-name="Layer 1" xmlns="http://www.w3.org/2000/svg" viewBox="0 0 143.21 143.21"><defs><style>.cls-1{fill:#fff;}.cls-2{fill:#d6d7d7;}.cls-3{fill:#010202;}</style></defs><title>brikker</title><path class="cls-1" d="M70.9,34c7.68.51,15.55,1.81,18,11.76s2,12.34-.64,15c-5.86,6-1.66,6-1.66,6s7.58,3.83,6.45,6.45a15.85,15.85,0,0,1-3.29,4.66l-5.7,2,6.63,34a6.72,6.72,0,0,1,5.25,3.19C98,120.31,98.18,125,98.18,125l-51.79.38s-1.69-4.69.56-6.57S52.22,114,52.22,114l7.31-35.59s-6,0-7.51-2.25-4-6.87.66-7.81,7.78-3.87,4.59-5.75-5.43-8.22-2.06-16.84S62.45,33.49,70.9,34"/><polygon class="cls-2" points="50.5 115.25 90.98 115.5 95.7 118.13 97.87 125.01 46.39 125.39 46.63 119.88 50.5 115.25"/><path class="cls-2" d="M56.79,67.47,68,68.24l16.83-1,6.28,2.09.95,5.17L88,78.37s-10.07,2-10.43,2-21.22-.88-21.22-.88L52,76.28l-1.78-3.85Z"/><path class="cls-3" d="M47.68,123.87c.16-1.9.68-4.42,2.05-5.88a4.1,4.1,0,0,1,3.15-1.25H90.32A4.1,4.1,0,0,1,93.48,118c1.37,1.46,1.89,4,2.05,5.88Zm11.6-29a124.21,124.21,0,0,0,1.55-13H82.37a125.12,125.12,0,0,0,1.55,13c.79,3.72,3.48,13.69,4.56,17.64H54.73c1.07-3.95,3.76-13.91,4.55-17.64m-6.6-21.51c0-2.24,2.78-4.15,6.15-4.28,1.25.41,4.89,1.33,12.57,1.33,7.85,0,11.7-.94,12.94-1.33,3.38.12,6.18,2,6.18,4.28s-3,4.28-6.5,4.28H59.18c-3.52,0-6.5-2-6.5-4.28M71.6,36.23A16.11,16.11,0,0,1,80.77,65.6h0a58.12,58.12,0,0,1-9.36.63,56.06,56.06,0,0,1-8.88-.58A16.11,16.11,0,0,1,71.6,36.23m24.94,78.88a8.05,8.05,0,0,0-3.61-2.22c-.41-1.5-4-14.64-4.9-18.87a122.62,122.62,0,0,1-1.47-12.41c4.68-.91,8.16-4.25,8.16-8.23,0-3.79-3.15-7-7.49-8.09A20.3,20.3,0,1,0,56,65.3c-4.33,1.09-7.48,4.3-7.48,8.09,0,4,3.49,7.32,8.16,8.23A121.59,121.59,0,0,1,55.18,94c-.9,4.23-4.49,17.38-4.9,18.87a8,8,0,0,0-3.61,2.22c-3.56,3.78-3.27,10.25-3.22,11a2.1,2.1,0,0,0,2.09,2H97.67a2.1,2.1,0,0,0,2.09-2c0-.73.33-7.19-3.22-11"/></svg>