<svg id="Layer_1" data-name="Layer 1" xmlns="http://www.w3.org/2000/svg" viewBox="0 0 143.21 143.21"><defs><style>.cls-1{fill:#fff;}.cls-2{fill:#d6d7d7;}.cls-3{fill:#010202;}</style></defs><title>brikker</title><path class="cls-1" d="M70.87,19.81c5.19.35,9.15,3.33,9.36,6.65s.62,8.11.62,8.11S90,38.73,92.7,42.68a58.11,58.11,0,0,0,6,7.28l8.14-.64c4.61-.37,12.06,6.17,11.65,8.46s-5.86,6.74-7.73,9S92.46,91.17,92.46,91.17l-2,21.16s5.72,2.33,7.17,5.87a19.08,19.08,0,0,1,1.25,7.35l-53.74.3s-.66-6.05,1.21-7.92A57.78,57.78,0,0,1,52,113.35s-.25-19.42-2.63-23.15A161.66,161.66,0,0,0,24.27,60.12s2.06-6.61,4.57-8.73c4.44-3.74,14.93-2.32,15.66.55s-.87-4.9,4.33-8.85,12.47-8.73,12.47-8.73-.41-6,.62-8.52,2.7-6.45,8.94-6"/><path class="cls-2" d="M49.73,115c.56-.14,20.1.28,20.1.28l20.1-1.53s3.6,2.08,4.16,2.22,4.3,8.73,4.3,8.73L79,126.33l-33.13.42-1.11-6.1Z"/><path class="cls-2" d="M61.31,34.37c.62-2-.9-10.88,2.56-12.13s7.76-4,12.34-1.38,5.4,9.42,5,10.95a9.58,9.58,0,0,0-.35,2.77s9.49,5.13,11.85,8.11a91.14,91.14,0,0,1,5.54,8.52l-5,5.59-8-.83-7.76-8-10-1.38-6.65,7.07-5.13,3s-7.76-.27-8.18-.55-3.5-4.76-3.5-4.76l6-9.56Z"/><path class="cls-3" d="M90.07,93.92l0,.16c-1.32,5.76-1.24,14.7-1.13,18.43H54.32c.11-3.74.19-12.68-1.13-18.43l0-.16C48.93,80.6,34.55,64.55,26.69,59.56a6.61,6.61,0,0,1,1.33-3c1.44-2.06,4.19-4.61,7.24-5,3.64-.44,5.6,1.43,8.08,3.8s5.05,4.83,9.41,4.9c6.32.12,8.44-3.1,10.17-5.69s3.11-4.65,8.73-4.65,7,2,8.67,4.64,3.75,5.71,9.8,5.71h.32c4.35-.08,7-2.64,9.41-4.9s4.44-4.24,8.08-3.8c3,.37,5.81,2.92,7.24,5a6.61,6.61,0,0,1,1.33,3c-7.86,5-22.24,21-26.45,34.37M96,123.85H47.25c.16-1.89.67-4.4,2.05-5.87a4.09,4.09,0,0,1,3.16-1.26H90.75A4.09,4.09,0,0,1,93.9,118c1.37,1.46,1.89,4,2.05,5.88m-32.2-86A2.09,2.09,0,0,0,65.42,35l0-.12a2,2,0,0,0-.2-.38,7.83,7.83,0,1,1,13.14-.24,2.1,2.1,0,0,0,1.16,3.61C92.28,39.54,95.9,51.47,96,52a2.06,2.06,0,0,0,.44.8c-1.88,1.78-3.61,3.25-6.11,3.29-4,.08-5-1.47-6.54-3.81-1.91-2.9-4.29-6.52-12.17-6.52s-10.28,3.61-12.22,6.51c-1.57,2.34-2.58,3.9-6.61,3.82-2.5,0-4.23-1.51-6.11-3.29a2.11,2.11,0,0,0,.44-.81c0-.12,3.69-12.41,16.58-14.13m56.81,20.42c-.88-4-5.91-10.1-12.1-10.86a11.39,11.39,0,0,0-8.69,2.46c-1.14-3.1-5.53-12.76-16.81-15.63a12,12,0,1,0-22.59,0C49,37.05,44.59,46.76,43.45,49.86a11.39,11.39,0,0,0-8.7-2.46c-6.19.76-11.22,6.83-12.1,10.86-.65,3,.91,4.29,1.61,4.73,7.34,4.54,21,20,24.85,32.13,1.24,5.46,1.09,14.47,1,17.72a8,8,0,0,0-3.85,2.27c-3.56,3.79-3.27,10.25-3.22,11a2.1,2.1,0,0,0,2.1,2h53a2.1,2.1,0,0,0,2.09-2c0-.73.34-7.19-3.22-11a8,8,0,0,0-3.85-2.27c-.1-3.25-.24-12.25,1-17.72C98,83,111.61,67.53,119,63c.7-.43,2.26-1.76,1.61-4.73"/></svg>